<svg width="298" height="345" viewBox="0 0 298 345" fill="none" xmlns="http://www.w3.org/2000/svg">
<g clip-path="url(#clip0_210_495)">
<path d="M283.981 325.183C282.124 325.86 280.129 326.03 278.19 325.676C276.251 325.321 274.432 324.455 272.91 323.16C269.032 319.784 267.815 314.223 266.827 309.073L263.901 293.84L270.027 298.216C274.432 301.362 278.937 304.609 281.987 309.166C285.038 313.724 286.369 319.945 283.918 324.876" fill="#E6E6E6"/>
<path d="M283.458 343.625C284.078 338.94 284.715 334.196 284.281 329.462C283.894 325.257 282.658 321.15 280.139 317.782C278.803 315.998 277.176 314.47 275.333 313.265C274.853 312.951 274.411 313.741 274.889 314.054C278.078 316.144 280.544 319.231 281.933 322.869C283.466 326.914 283.712 331.325 283.446 335.622C283.286 338.221 282.948 340.802 282.606 343.382C282.579 343.498 282.595 343.622 282.652 343.726C282.71 343.83 282.803 343.908 282.914 343.944C283.027 343.975 283.147 343.959 283.248 343.9C283.35 343.84 283.424 343.741 283.456 343.624L283.458 343.625Z" fill="#F2F2F2"/>
<path d="M261.255 265.82H4.96924V0H261.255V265.82Z" fill="white"/>
<path d="M261.255 265.82H4.96924V0H261.255V265.82ZM8.75581 261.893H257.469V3.92748H8.75581V261.893Z" fill="#E5E5E5"/>
<path d="M215.854 41.5878H104.871V45.1735H215.854V41.5878Z" fill="#E5E5E5"/>
<path d="M215.854 50.9108H104.871V54.4965H215.854V50.9108Z" fill="#E5E5E5"/>
<path d="M215.854 60.2338H104.871V63.8195H215.854V60.2338Z" fill="#E5E5E5"/>
<path d="M215.854 121.643H104.871V125.228H215.854V121.643Z" fill="#E5E5E5"/>
<path d="M215.854 130.966H104.871V134.551H215.854V130.966Z" fill="#E5E5E5"/>
<path d="M215.854 140.289H104.871V143.874H215.854V140.289Z" fill="#E5E5E5"/>
<path d="M215.854 201.697H104.871V205.283H215.854V201.697Z" fill="#E5E5E5"/>
<path d="M215.854 211.02H104.871V214.606H215.854V211.02Z" fill="#E5E5E5"/>
<path d="M215.854 220.343H104.871V223.929H215.854V220.343Z" fill="#E5E5E5"/>
<path d="M60.4421 70.1573C58.5462 69.121 56.5672 68.2571 54.5273 67.5755L54.2672 64.5911L43.7185 63.4124L42.3778 67.2269L38.5921 68.7004C38.4566 68.7536 38.3277 68.8233 38.2079 68.9079H38.2038C37.9926 69.056 37.8126 69.2472 37.675 69.4699C37.5374 69.6925 37.445 69.9419 37.4035 70.2029C37.363 70.4624 37.3726 70.7276 37.4316 70.9832L37.6317 71.8341C37.9197 72.0126 38.2159 72.1828 38.512 72.3446L38.7002 72.4443C39.1324 72.6767 39.5726 72.8967 40.0248 73.1001C40.1168 73.1416 40.2169 73.1831 40.3089 73.2246C40.3169 73.2288 40.3208 73.2288 40.3288 73.2329C40.541 73.3242 40.753 73.4114 40.9692 73.4944C41.679 73.7756 42.4031 74.0167 43.1381 74.2166C45.0141 74.7352 46.9473 74.9976 48.8888 74.997C49.5971 74.997 50.2974 74.9638 50.9898 74.8932C52.5716 74.7417 54.1333 74.4147 55.648 73.9178C55.6519 73.9178 55.656 73.9136 55.6599 73.9136C56.6167 73.5975 57.5514 73.2133 58.4572 72.7639C58.4612 72.7597 58.4692 72.7597 58.4733 72.7556C58.6773 72.656 58.8735 72.5481 59.0735 72.4443L59.1695 72.3944C59.3295 72.3073 59.4897 72.2201 59.6498 72.1288C60.05 71.9005 60.4421 71.6598 60.8302 71.4024C60.9383 71.336 61.0424 71.2655 61.1505 71.1908C61.3025 71.087 61.4545 70.9791 61.6026 70.867C61.2304 70.618 60.8423 70.3814 60.4421 70.1573Z" fill="#3F3D56"/>
<path d="M40.6448 71.996L39.9845 68.9037H38.2597C38.2423 68.9039 38.225 68.9053 38.2078 68.9078H38.2036C37.5838 68.9622 36.9869 69.1762 36.4669 69.5304C36.1143 69.7639 35.8007 70.0556 35.5386 70.3938C36.0507 70.7964 36.583 71.17 37.1313 71.5269L37.1553 71.5394C37.3112 71.639 37.4715 71.7386 37.6315 71.8341C37.9196 72.0125 38.2158 72.1827 38.5118 72.3446L38.7 72.4442C39.1322 72.6767 39.5725 72.8966 40.0246 73.1C40.1166 73.1415 40.2167 73.183 40.3087 73.2246C40.3167 73.2287 40.3207 73.2287 40.3287 73.2329C40.5409 73.3242 40.7529 73.4113 40.969 73.4944L40.6448 71.996Z" fill="#3F3D56"/>
<path d="M48.5788 61.5255C52.7746 61.5255 56.1761 57.9976 56.1761 53.6456C56.1761 49.2936 52.7746 45.7656 48.5788 45.7656C44.3829 45.7656 40.9814 49.2936 40.9814 53.6456C40.9814 57.9976 44.3829 61.5255 48.5788 61.5255Z" fill="#FFB8B8"/>
<path d="M43.4781 49.8075C44.2645 50.7728 45.5955 51.0452 46.8232 51.1569C49.6937 51.3214 52.5724 51.0776 55.3791 50.4323C55.553 52.1806 55.0788 54.0657 56.0717 55.5039C56.5371 53.7628 56.8077 51.9719 56.8782 50.1665C56.9523 49.3919 56.8548 48.61 56.5931 47.8805C56.4532 47.5149 56.2172 47.1974 55.912 46.9639C55.6067 46.7305 55.2444 46.5906 54.8663 46.5601C55.4323 46.1147 56.0954 45.8207 56.7968 45.7041L54.3845 44.4467L55.004 43.787L50.6366 43.5098L51.9016 42.6763C49.9977 42.405 48.0717 42.3419 46.1551 42.4882C45.2595 42.4886 44.3809 42.7419 43.6135 43.2209C42.8924 43.7558 42.4758 44.8188 42.9234 45.604C42.363 45.6995 41.8353 45.9418 41.3904 46.3079C40.9455 46.6741 40.598 47.152 40.381 47.6964C40.1066 48.5617 40.0403 49.4834 40.188 50.3814C40.3526 51.822 40.6754 53.2385 41.1502 54.6031L43.4781 49.8075Z" fill="#2F2E41"/>
<path d="M69.9424 45.1035C68.8765 41.9273 67.1554 39.0306 64.8991 36.6152C62.6429 34.1998 59.9058 32.3239 56.8788 31.1184C53.8518 29.913 50.6077 29.4068 47.3727 29.6354C44.1377 29.8639 40.9897 30.8216 38.1482 32.4417C35.3068 34.0618 32.8402 36.3052 30.9206 39.0156C29.0009 41.726 27.6744 44.8381 27.0336 48.1349C26.3927 51.4316 26.4529 54.8337 27.2099 58.1039C27.9669 61.374 29.4026 64.4336 31.4168 67.0691C31.6169 67.3306 31.825 67.5921 32.0372 67.8453C32.0532 67.8619 32.0651 67.8785 32.0811 67.8951C32.6028 68.5185 33.1572 69.1116 33.7418 69.6716C33.8941 69.8169 34.0541 69.9663 34.2141 70.1074C34.5182 70.3897 34.8304 70.6594 35.1546 70.9168C35.2826 71.0206 35.4067 71.1243 35.5388 71.224C36.0509 71.6266 36.5832 72.0001 37.1315 72.3571L37.1555 72.3695C37.3114 72.4692 37.4717 72.5688 37.6317 72.6643C37.9198 72.8427 38.216 73.0129 38.512 73.1748L38.7002 73.2744C39.1324 73.5069 39.5727 73.7268 40.0248 73.9302C40.1169 73.9717 40.2169 74.0132 40.3089 74.0548C40.3169 74.0589 40.3208 74.0589 40.3289 74.0631C40.5411 74.1544 40.7531 74.2415 40.9692 74.3246C41.6791 74.6058 42.4031 74.8468 43.1382 75.0468C45.0141 75.5654 46.9474 75.8277 48.8888 75.8271C49.5972 75.8271 50.2975 75.7939 50.9898 75.7233C52.5717 75.5719 54.1333 75.2449 55.648 74.7479C55.6519 74.7479 55.656 74.7438 55.6599 74.7438C56.6167 74.4276 57.5514 74.0434 58.4573 73.594C58.4612 73.5899 58.4692 73.5899 58.4733 73.5857C58.6773 73.4861 58.8735 73.3782 59.0736 73.2744L59.1695 73.2246C59.3295 73.1374 59.4898 73.0503 59.6498 72.959C60.05 72.7307 60.4422 72.4899 60.8302 72.2326C60.9383 72.1662 61.0424 72.0956 61.1505 72.0209C61.3025 71.9171 61.4545 71.8092 61.6027 71.6971C61.7986 71.556 61.9948 71.4107 62.1869 71.2613C62.2469 71.2157 62.311 71.17 62.371 71.1202C66.1202 68.1686 68.8721 64.0615 70.2322 59.3878C71.5924 54.7141 71.4909 49.7138 69.9424 45.1035V45.1035ZM61.6347 70.1115C61.5026 70.2195 61.3666 70.3232 61.2304 70.4187C61.0983 70.5225 60.9664 70.6221 60.8302 70.7134C60.7142 70.8006 60.5981 70.8836 60.4781 70.9625L60.4422 70.9874C60.354 71.0496 60.2661 71.1077 60.178 71.1658C59.8458 71.3817 59.5096 71.5892 59.1695 71.7885L59.0615 71.8507C58.9094 71.9379 58.7574 72.0209 58.6054 72.1039C58.5853 72.1164 58.5612 72.1247 58.5413 72.1371L58.5173 72.1496C58.3252 72.2534 58.129 72.353 57.933 72.4484C57.1763 72.8264 56.397 73.1536 55.5999 73.428C55.4958 73.4653 55.3918 73.5027 55.2879 73.5359C53.8542 74.0089 52.3757 74.3206 50.8778 74.4657C50.2215 74.5279 49.5571 74.5611 48.8888 74.5611C47.0525 74.5651 45.2238 74.3166 43.4504 73.8223C42.5403 73.5759 41.6483 73.2624 40.7812 72.8843C40.7371 72.8635 40.689 72.8469 40.645 72.8262C40.5972 72.8054 40.553 72.7888 40.509 72.768C40.461 72.7473 40.417 72.7265 40.3689 72.7016C39.9928 72.5314 39.6205 72.3447 39.2565 72.1496L39.0804 72.0541C38.6361 71.8134 38.2 71.556 37.7757 71.2821C37.6516 71.2032 37.5237 71.1202 37.4035 71.033C37.3717 71.0123 37.3435 70.9915 37.3115 70.9708C37.0274 70.7757 36.7432 70.5723 36.4671 70.3606C36.2792 70.2153 36.091 70.0701 35.9069 69.9206C35.5988 69.6799 35.3025 69.4225 35.0145 69.1569C34.8625 69.0241 34.7144 68.8788 34.5704 68.7418C34.003 68.1984 33.4658 67.6219 32.9616 67.0152C32.7936 66.8159 32.6294 66.6167 32.4733 66.4091C32.4378 66.3681 32.4044 66.3251 32.3733 66.2805C29.7731 62.8774 28.2092 58.7481 27.8809 54.4194C27.5526 50.0906 28.4748 45.7585 30.5298 41.9756C32.5849 38.1927 35.6797 35.1303 39.4196 33.1791C43.1595 31.2279 47.375 30.4763 51.5284 31.0201C55.6818 31.5639 59.585 33.3784 62.7401 36.2324C65.8952 39.0863 68.1592 42.8503 69.2435 47.0443C70.3277 51.2382 70.1831 55.6721 68.8279 59.7805C67.4728 63.8888 64.9686 67.4854 61.6347 70.1116L61.6347 70.1115Z" fill="#3F3D56"/>
<path d="M69.9424 125.158C68.8764 121.982 67.1553 119.085 64.8991 116.67C62.6429 114.255 59.9058 112.379 56.8788 111.173C53.8518 109.968 50.6077 109.462 47.3727 109.69C44.1377 109.919 40.9897 110.877 38.1482 112.497C35.3068 114.117 32.8402 116.36 30.9206 119.071C29.0009 121.781 27.6744 124.893 27.0336 128.19C26.3927 131.487 26.4528 134.889 27.2099 138.159C27.9669 141.429 29.4026 144.488 31.4168 147.124C31.6168 147.385 31.8249 147.647 32.037 147.9C32.053 147.917 32.0649 147.933 32.0809 147.95C32.6027 148.573 33.1572 149.166 33.7418 149.726C33.8939 149.872 34.0539 150.021 34.2139 150.162C34.5182 150.445 34.8302 150.714 35.1544 150.972C35.7873 151.489 36.4473 151.97 37.1313 152.412L37.1553 152.424C37.5995 152.711 38.0516 152.976 38.512 153.23L38.7 153.329C39.1322 153.562 39.5724 153.782 40.0246 153.985C40.1166 154.027 40.2167 154.068 40.3087 154.11C40.3167 154.114 40.3208 154.114 40.3288 154.118C41.2425 154.512 42.1811 154.841 43.1381 155.102C45.014 155.62 46.9472 155.883 48.8886 155.882C49.597 155.882 50.2973 155.849 50.9896 155.778C52.5715 155.627 54.1331 155.3 55.6478 154.803C55.6519 154.803 55.6558 154.799 55.6597 154.799C56.6165 154.483 57.5512 154.098 58.4571 153.649C58.461 153.645 58.4692 153.645 58.4731 153.641C58.6771 153.541 58.8733 153.433 59.0734 153.329L59.1695 153.279C59.3295 153.192 59.4896 153.105 59.6496 153.014C60.0498 152.786 60.4419 152.545 60.8302 152.287C60.9383 152.221 61.0422 152.15 61.1503 152.076C61.5024 151.835 61.8506 151.578 62.1867 151.316C62.2469 151.271 62.3108 151.225 62.3709 151.175C66.12 148.223 68.8718 144.116 70.232 139.443C71.5921 134.769 71.4907 129.769 69.9424 125.158V125.158Z" fill="white"/>
<path d="M56.2454 142.29C58.0907 142.29 59.5865 140.739 59.5865 138.825C59.5865 136.911 58.0907 135.359 56.2454 135.359C54.4002 135.359 52.9043 136.911 52.9043 138.825C52.9043 140.739 54.4002 142.29 56.2454 142.29Z" fill="#2F2E41"/>
<path d="M57.1763 135.455C57.7546 135.455 58.3229 135.611 58.8258 135.907C59.3287 136.203 59.7489 136.629 60.0453 137.144C60.3418 137.659 60.5042 138.245 60.5169 138.845C60.5296 139.444 60.392 140.037 60.1176 140.565C60.4072 140.189 60.6181 139.755 60.7369 139.29C60.8557 138.825 60.8798 138.339 60.8077 137.864C60.7355 137.388 60.5687 136.934 60.3178 136.529C60.067 136.124 59.7376 135.778 59.3507 135.513C58.9637 135.247 58.5277 135.068 58.0704 134.987C57.6131 134.906 57.1446 134.925 56.6947 135.042C56.2447 135.159 55.8232 135.373 55.457 135.668C55.0909 135.963 54.7881 136.335 54.5679 136.758C54.8802 136.351 55.277 136.023 55.7287 135.797C56.1804 135.572 56.6753 135.455 57.1767 135.455L57.1763 135.455Z" fill="#2F2E41"/>
<path d="M50.0019 138.817C55.4225 138.817 59.8168 134.26 59.8168 128.637C59.8168 123.015 55.4225 118.457 50.0019 118.457C44.5813 118.457 40.187 123.015 40.187 128.637C40.187 134.26 44.5813 138.817 50.0019 138.817Z" fill="#2F2E41"/>
<path d="M42.2991 122.321C43.9903 120.348 46.3542 119.134 48.8921 118.935C51.4299 118.736 53.9431 119.567 55.9013 121.254C55.8212 121.174 55.7412 121.095 55.6584 121.018C53.7195 119.216 51.1701 118.287 48.571 118.436C45.9718 118.584 43.5358 119.797 41.7989 121.808C40.062 123.819 39.1664 126.463 39.3092 129.159C39.452 131.854 40.6215 134.381 42.5603 136.183C42.5789 136.2 42.5976 136.217 42.6164 136.234C42.6996 136.311 42.7853 136.384 42.8705 136.457C41.0266 134.638 39.9363 132.146 39.8297 129.509C39.7232 126.871 40.6087 124.294 42.2995 122.321L42.2991 122.321Z" fill="#2F2E41"/>
<path d="M49.9189 138.731C53.4101 138.731 56.2402 135.796 56.2402 132.175C56.2402 128.553 53.4101 125.618 49.9189 125.618C46.4278 125.618 43.5977 128.553 43.5977 132.175C43.5977 135.796 46.4278 138.731 49.9189 138.731Z" fill="#A0616A"/>
<path d="M61.2302 149.257V151.457C60.842 151.715 60.4498 151.955 60.0496 152.184C59.8896 152.275 59.7296 152.362 59.5695 152.449L59.4734 152.499C59.2733 152.603 59.0771 152.711 58.8731 152.81C58.8692 152.815 58.861 152.815 58.8571 152.819C57.9512 153.268 57.0165 153.652 56.0597 153.969C56.0558 153.969 56.0519 153.973 56.0478 153.973C54.5332 154.47 52.9715 154.797 51.3896 154.948C50.6973 155.019 49.997 155.052 49.2887 155.052C47.3472 155.052 45.4141 154.79 43.5382 154.272C42.5812 154.011 41.6425 153.682 40.7289 153.288C40.7209 153.284 40.7168 153.284 40.7087 153.28C40.6167 153.238 40.5167 153.196 40.4246 153.155C39.9725 152.952 39.5322 152.732 39.1 152.499L38.912 152.4C38.4517 152.146 37.9995 151.881 37.5554 151.594L37.5313 151.582C36.8473 151.14 36.1874 150.659 35.5544 150.142C35.2303 149.884 34.9182 149.614 34.614 149.332C34.4539 149.191 34.2939 149.042 34.1419 148.896C33.5572 148.336 33.0027 147.743 32.481 147.12C32.5502 146.688 32.6519 146.261 32.7852 145.846L32.7891 145.841C32.8131 145.771 32.8411 145.701 32.8731 145.634C32.8952 145.574 32.9206 145.516 32.9492 145.46C33.6655 144.069 34.9622 143.725 36.5709 143.65C37.4793 143.608 38.4837 143.654 39.5444 143.642C40.1046 143.637 40.6847 143.617 41.2651 143.563C44.9267 143.218 44.2625 140.977 44.4265 139.769C44.5906 138.598 45.6071 139.611 45.6751 139.678L45.679 139.682C47.7511 140.688 50.0437 141.104 52.3221 140.89C52.7143 140.84 53.1064 140.811 53.4986 140.798C54.5311 140.786 54.307 141.093 53.951 141.346C53.7781 141.464 53.5976 141.57 53.4107 141.662C53.4107 141.662 53.2465 142.699 53.0785 144.252C52.9185 145.738 55.6637 146.435 55.8917 146.489C55.8964 146.492 55.9021 146.494 55.9077 146.493C56.9103 146.223 57.9658 146.252 58.9533 146.576H58.9572C59.5214 146.791 60.0249 147.149 60.4218 147.618C60.8188 148.086 61.0967 148.65 61.2302 149.257V149.257Z" fill="#7C49E9"/>
<path d="M40.7692 151.926C40.7692 152.233 40.7614 152.528 40.7493 152.806C40.7453 152.972 40.7373 153.134 40.7293 153.288C40.7213 153.284 40.7172 153.284 40.7092 153.279C40.6172 153.238 40.5171 153.196 40.4251 153.155C39.9729 152.952 39.5327 152.732 39.1005 152.499L38.9125 152.4C38.4521 152.146 38 151.881 37.5558 151.594C37.5677 151.449 37.5879 151.304 37.6078 151.158C37.6517 150.839 37.6879 150.515 37.7119 150.195C37.8692 147.95 37.4769 145.7 36.5714 143.654V143.65C36.4912 143.484 36.4434 143.392 36.4434 143.392C36.4434 143.392 37.6078 142.355 39.2685 143.392C39.3746 143.457 39.4682 143.542 39.5448 143.642C40.5452 144.866 40.8173 148.983 40.7692 151.926Z" fill="#2F2E41"/>
<path d="M58.9415 151.362C58.9255 151.827 58.9014 152.312 58.8735 152.806V152.81C58.8696 152.815 58.8614 152.815 58.8574 152.819C57.9516 153.268 57.0169 153.652 56.0601 153.969C56.0562 153.969 56.0523 153.973 56.0482 153.973L56.0042 152.806L56.0001 152.653L55.7881 146.975C55.7824 146.846 55.8019 146.718 55.8454 146.597C55.8889 146.477 55.9554 146.366 56.0411 146.273C56.1267 146.18 56.2297 146.106 56.3437 146.055C56.4577 146.005 56.5804 145.979 56.7045 145.978H58.7334C58.8334 145.978 58.9055 146.19 58.9536 146.572V146.576C59.052 148.17 59.0479 149.769 58.9415 151.362V151.362Z" fill="#2F2E41"/>
<path d="M44.5122 123.979V130.537H45.9761L47.8389 128.467L47.5896 130.537H54.0606L53.6604 128.467L54.4608 130.537H55.4925V123.979H44.5122Z" fill="#2F2E41"/>
<path d="M43.5142 131.743C43.7898 131.743 44.0132 131.318 44.0132 130.794C44.0132 130.27 43.7898 129.846 43.5142 129.846C43.2386 129.846 43.0151 130.27 43.0151 130.794C43.0151 131.318 43.2386 131.743 43.5142 131.743Z" fill="#A0616A"/>
<path d="M56.3237 131.743C56.5993 131.743 56.8228 131.318 56.8228 130.794C56.8228 130.27 56.5993 129.846 56.3237 129.846C56.0481 129.846 55.8247 130.27 55.8247 130.794C55.8247 131.318 56.0481 131.743 56.3237 131.743Z" fill="#A0616A"/>
<path d="M62.587 150.486C62.2509 150.748 61.9027 151.005 61.5506 151.246C61.4426 151.32 61.3386 151.391 61.2305 151.457C60.8423 151.715 60.4501 151.955 60.0499 152.184C59.8899 152.275 59.7299 152.362 59.5698 152.449V147.875C59.5698 147.875 60.21 148.407 61.2305 149.291C61.3585 149.403 61.4906 149.519 61.6307 149.643C61.9267 149.901 62.247 150.183 62.587 150.486Z" fill="#7C49E9"/>
<path d="M69.9424 125.158C68.8764 121.982 67.1553 119.085 64.8991 116.67C62.6429 114.255 59.9058 112.379 56.8788 111.173C53.8518 109.968 50.6077 109.462 47.3727 109.69C44.1377 109.919 40.9897 110.877 38.1482 112.497C35.3068 114.117 32.8402 116.36 30.9206 119.071C29.0009 121.781 27.6744 124.893 27.0336 128.19C26.3927 131.487 26.4528 134.889 27.2099 138.159C27.9669 141.429 29.4026 144.488 31.4168 147.124C31.6168 147.385 31.8249 147.647 32.037 147.9C32.053 147.917 32.0649 147.933 32.0809 147.95C32.6027 148.573 33.1572 149.166 33.7418 149.726C33.8939 149.872 34.0539 150.021 34.2139 150.162C34.5182 150.445 34.8302 150.714 35.1544 150.972C35.7873 151.489 36.4473 151.97 37.1313 152.412L37.1553 152.424C37.5995 152.711 38.0516 152.976 38.512 153.23L38.7 153.329C39.1322 153.562 39.5724 153.782 40.0246 153.985C40.1166 154.027 40.2167 154.068 40.3087 154.11C40.3167 154.114 40.3208 154.114 40.3288 154.118C41.2425 154.512 42.1811 154.841 43.1381 155.102C45.014 155.62 46.9472 155.883 48.8886 155.882C49.597 155.882 50.2973 155.849 50.9896 155.778C52.5715 155.627 54.1331 155.3 55.6478 154.803C55.6519 154.803 55.6558 154.799 55.6597 154.799C56.6165 154.483 57.5512 154.098 58.4571 153.649C58.461 153.645 58.4692 153.645 58.4731 153.641C58.6771 153.541 58.8733 153.433 59.0734 153.329L59.1695 153.279C59.3295 153.192 59.4896 153.105 59.6496 153.014C60.0498 152.786 60.4419 152.545 60.8302 152.287C60.9383 152.221 61.0422 152.15 61.1503 152.076C61.5024 151.835 61.8506 151.578 62.1867 151.316C62.2469 151.271 62.3108 151.225 62.3709 151.175C66.12 148.223 68.8718 144.116 70.232 139.443C71.5921 134.769 71.4907 129.769 69.9424 125.158V125.158ZM61.6345 150.166C61.5024 150.274 61.3664 150.378 61.2304 150.474C61.0983 150.577 60.9662 150.677 60.8302 150.768C60.7142 150.855 60.5981 150.938 60.4779 151.017C60.3779 151.088 60.2778 151.154 60.1778 151.221C59.8458 151.437 59.5097 151.644 59.1695 151.843L59.0612 151.906C58.9092 151.993 58.7572 152.076 58.6052 152.159C58.585 152.171 58.561 152.18 58.5411 152.192L58.5171 152.204C58.325 152.308 58.129 152.408 57.9328 152.503C57.1761 152.881 56.3968 153.208 55.5997 153.483C55.4958 153.52 55.3916 153.558 55.2877 153.591C53.854 154.064 52.3755 154.375 50.8776 154.521C50.2213 154.583 49.5569 154.616 48.8886 154.616C47.0523 154.62 45.2236 154.372 43.4502 153.877C42.5401 153.631 41.6481 153.317 40.781 152.939C40.689 152.902 40.5969 152.86 40.5088 152.823C40.4609 152.802 40.4168 152.781 40.3687 152.757C39.9926 152.586 39.6205 152.4 39.2563 152.204L39.0802 152.109C38.6361 151.868 38.1998 151.611 37.7755 151.337C37.6196 151.237 37.4635 151.134 37.3114 151.026C36.8312 150.698 36.363 150.345 35.9067 149.976C35.5986 149.735 35.3025 149.477 35.0143 149.212C34.8623 149.079 34.7141 148.934 34.5702 148.797C34.0028 148.253 33.4657 147.677 32.9614 147.07C32.7934 146.871 32.6292 146.672 32.4731 146.464C32.4376 146.423 32.4042 146.38 32.373 146.335C29.7729 142.932 28.209 138.803 27.8807 134.474C27.5524 130.146 28.4745 125.813 30.5296 122.03C32.5847 118.248 35.6795 115.185 39.4194 113.234C43.1593 111.283 47.3748 110.531 51.5282 111.075C55.6816 111.619 59.5848 113.433 62.7398 116.287C65.8949 119.141 68.159 122.905 69.2432 127.099C70.3275 131.293 70.1828 135.727 68.8277 139.835C67.4726 143.944 64.9684 147.54 61.6345 150.166V150.166Z" fill="#3F3D56"/>
<path d="M49.0149 223.207C53.8388 223.207 57.7495 219.15 57.7495 214.147C57.7495 209.144 53.8388 205.087 49.0149 205.087C44.1909 205.087 40.2803 209.144 40.2803 214.147C40.2803 219.15 44.1909 223.207 49.0149 223.207Z" fill="#2F2E41"/>
<path d="M42.1969 209.262C43.6084 207.798 43.8944 205.721 42.8358 204.623C41.7772 203.525 39.7748 203.822 38.3633 205.286C36.9518 206.75 36.6658 208.827 37.7244 209.925C38.783 211.023 40.7854 210.726 42.1969 209.262Z" fill="#2F2E41"/>
<path d="M58.1181 206.385C58.7062 204.957 57.6949 203.14 55.8592 202.327C54.0236 201.514 52.0587 202.012 51.4706 203.44C50.8825 204.868 51.8939 206.685 53.7295 207.498C55.5652 208.312 57.5301 207.813 58.1181 206.385Z" fill="#2F2E41"/>
<path d="M59.4628 231.72L58.4336 230.04C57.997 229.029 57.1915 228.238 56.1937 227.841C55.1958 227.444 54.0869 227.473 53.1099 227.922C52.1328 228.371 51.3672 229.204 50.9808 230.237C50.5944 231.271 50.6186 232.421 51.0482 233.436L51.3408 234.525L51.6739 235.759C53.0221 235.583 54.3524 235.282 55.649 234.859C55.6528 234.859 55.6564 234.857 55.6591 234.854C56.6175 234.54 57.5531 234.155 58.459 233.703C58.4639 233.698 58.4689 233.698 58.474 233.693C58.6758 233.593 58.8726 233.489 59.0743 233.384C59.1073 233.369 59.1393 233.351 59.1701 233.332C59.3315 233.248 59.4931 233.159 59.6495 233.07C59.8108 232.981 59.9672 232.887 60.1185 232.787L59.4628 231.72Z" fill="#CACACA"/>
<path d="M49.2919 223.998C53.3859 223.998 56.7048 220.556 56.7048 216.31C56.7048 212.063 53.3859 208.621 49.2919 208.621C45.1978 208.621 41.8789 212.063 41.8789 216.31C41.8789 220.556 45.1978 223.998 49.2919 223.998Z" fill="#FFB6B6"/>
<path d="M59.9971 231.39C59.1794 229.98 58.1645 228.703 56.9854 227.602C56.1778 226.854 55.1325 226.44 54.0495 226.441H43.6069C43.0052 226.44 42.4098 226.568 41.8576 226.816C41.3053 227.064 40.808 227.426 40.3962 227.882C39.9844 228.337 39.6669 228.874 39.4634 229.462C39.2599 230.049 39.1747 230.673 39.213 231.296C39.2358 231.648 39.2968 231.995 39.3948 232.332C39.4693 232.577 39.562 232.815 39.6722 233.044L40.1867 234.111C40.2271 234.127 40.2675 234.148 40.3077 234.164C40.3178 234.169 40.323 234.169 40.3279 234.174C40.5397 234.263 40.7518 234.352 40.9685 234.436C41.6784 234.717 42.4026 234.958 43.1379 235.158C44.3214 235.487 45.5296 235.713 46.7497 235.833C47.4611 235.901 48.1724 235.937 48.8887 235.937C49.6001 235.937 50.2962 235.901 50.9923 235.833C51.2194 235.812 51.4463 235.786 51.6734 235.759C53.0216 235.583 54.352 235.282 55.6485 234.859C55.6524 234.859 55.6559 234.857 55.6586 234.854C56.617 234.54 57.5526 234.155 58.4585 233.703C58.4635 233.698 58.4684 233.698 58.4736 233.693C58.6753 233.593 58.8721 233.489 59.0739 233.384C59.1068 233.369 59.1388 233.351 59.1697 233.332C59.331 233.248 59.4926 233.159 59.649 233.07C59.8104 232.981 59.9667 232.887 60.118 232.787C60.2796 232.699 60.4308 232.599 60.5873 232.5C60.3957 232.107 60.1989 231.741 59.9971 231.39Z" fill="#CACACA"/>
<path d="M45.4987 227.843C44.5323 227.374 43.4263 227.321 42.4224 227.696C41.4185 228.07 40.5984 228.842 40.1414 229.842L39.213 231.296L38.7692 231.992L38.0933 233.049C38.2344 233.128 38.3706 233.206 38.512 233.285L38.6985 233.384C39.1325 233.614 39.5712 233.834 40.0254 234.038C40.0757 234.064 40.1313 234.085 40.1867 234.111C40.2271 234.127 40.2675 234.148 40.3077 234.164C40.3178 234.169 40.323 234.169 40.3279 234.174C40.5397 234.263 40.7518 234.352 40.9685 234.436C41.6784 234.717 42.4026 234.958 43.1379 235.158C44.3215 235.487 45.5296 235.713 46.7497 235.833L47.1029 234.593L47.446 233.41C47.8983 232.404 47.9472 231.253 47.5822 230.209C47.2171 229.165 46.4678 228.314 45.4987 227.843V227.843Z" fill="#CACACA"/>
<path d="M41.5024 211.473C43.1964 212.684 45.207 213.329 47.2644 213.32C46.5305 213.848 45.695 214.205 44.8155 214.365C47.5509 214.974 50.3779 214.99 53.1197 214.414C53.7292 214.312 54.3172 214.103 54.8581 213.794C55.1276 213.638 55.3625 213.425 55.5473 213.169C55.7322 212.912 55.863 212.618 55.9311 212.306C56.1133 211.226 55.3023 210.246 54.4595 209.585C53.169 208.588 51.6811 207.901 50.1035 207.574C48.5258 207.247 46.8978 207.288 45.3372 207.694C44.2974 207.911 43.3511 208.466 42.6355 209.278C42.2892 209.691 42.0801 210.209 42.0392 210.754C41.9982 211.3 42.1276 211.845 42.4081 212.309L41.5024 211.473Z" fill="#2F2E41"/>
<path d="M69.9454 205.213C68.8796 202.037 67.1587 199.139 64.9024 196.724C62.6462 194.308 59.9091 192.432 56.8819 191.226C53.8547 190.02 50.6104 189.514 47.3752 189.742C44.14 189.971 40.9917 190.929 38.15 192.549C35.3084 194.169 32.8416 196.413 30.9219 199.123C29.0022 201.834 27.6757 204.946 27.0349 208.243C26.3941 211.54 26.4544 214.942 27.2117 218.213C27.969 221.483 29.405 224.543 31.4195 227.178C31.6161 227.44 31.8282 227.702 32.04 227.953C32.0521 227.971 32.0656 227.989 32.0804 228.005C32.6028 228.628 33.1586 229.22 33.745 229.779C33.8963 229.925 34.0527 230.077 34.2143 230.218C34.5168 230.501 34.8296 230.768 35.1574 231.024C35.2836 231.129 35.4097 231.233 35.541 231.333C36.0504 231.736 36.5851 232.107 37.13 232.468C37.1393 232.468 37.1483 232.472 37.1551 232.479C37.3115 232.578 37.4731 232.678 37.6344 232.772C37.7857 232.866 37.9421 232.96 38.0936 233.049C38.2347 233.127 38.3709 233.206 38.5123 233.284L38.6988 233.384C39.1328 233.614 39.5715 233.834 40.0257 234.038C40.076 234.064 40.1317 234.085 40.1871 234.111C40.2275 234.127 40.2679 234.148 40.308 234.163C40.3181 234.169 40.3233 234.169 40.3282 234.174C40.54 234.263 40.7521 234.352 40.9689 234.436C41.6788 234.717 42.403 234.958 43.1382 235.158C44.3218 235.487 45.53 235.713 46.75 235.833C47.4614 235.901 48.1728 235.937 48.8891 235.937C49.6004 235.937 50.2965 235.901 50.9927 235.833C51.2198 235.812 51.4466 235.786 51.6737 235.759C53.022 235.583 54.3523 235.282 55.6489 234.859C55.6527 234.859 55.6563 234.857 55.659 234.854C56.6173 234.54 57.553 234.155 58.4589 233.703C58.4638 233.698 58.4687 233.698 58.4739 233.693C58.6756 233.593 58.8724 233.489 59.0742 233.384C59.1071 233.369 59.1391 233.351 59.17 233.332C59.3314 233.248 59.4929 233.159 59.6494 233.07C59.8107 232.981 59.967 232.887 60.1183 232.787C60.2799 232.698 60.4312 232.599 60.5876 232.5C60.6684 232.447 60.7491 232.395 60.8297 232.343C60.9408 232.275 61.0416 232.207 61.1527 232.128C61.3039 232.029 61.4554 231.919 61.6015 231.809C61.7983 231.668 61.9951 231.521 62.1867 231.369C62.2513 231.326 62.3136 231.279 62.3734 231.228C66.1197 228.274 68.8695 224.168 70.2295 219.495C71.5895 214.822 71.49 209.823 69.9453 205.213L69.9454 205.213ZM61.6369 230.218C61.5057 230.328 61.3694 230.433 61.2335 230.527C61.097 230.632 60.966 230.731 60.8298 230.825C60.7137 230.909 60.5977 230.993 60.4768 231.071C60.4658 231.081 60.4539 231.09 60.4413 231.097C60.3556 231.16 60.2647 231.218 60.179 231.275C60.1184 231.312 60.058 231.354 59.9975 231.39C59.8208 231.506 59.6442 231.615 59.4627 231.72C59.3669 231.783 59.2659 231.84 59.1701 231.898C59.1348 231.919 59.0994 231.94 59.0641 231.961C58.9077 232.05 58.7565 232.128 58.605 232.212C58.585 232.228 58.5596 232.233 58.5446 232.248C58.5352 232.249 58.5262 232.252 58.5192 232.259C58.3276 232.364 58.1308 232.463 57.9342 232.557C57.1768 232.935 56.3965 233.262 55.5984 233.536C55.4976 233.572 55.3917 233.614 55.2907 233.646C54.0042 234.069 52.6814 234.363 51.3407 234.525C51.1895 234.545 51.0331 234.561 50.8767 234.577C50.2209 234.64 49.5601 234.671 48.8891 234.671C48.2937 234.671 47.6934 234.645 47.1033 234.593C45.8694 234.486 44.6471 234.265 43.4511 233.933C42.5406 233.687 41.6487 233.372 40.7824 232.991C40.7369 232.971 40.6916 232.955 40.6462 232.934C40.5957 232.913 40.5553 232.897 40.51 232.876C40.4595 232.855 40.4191 232.834 40.3686 232.808C40.0408 232.662 39.7129 232.5 39.3952 232.332C39.3496 232.306 39.3043 232.285 39.259 232.259L39.0824 232.165C38.9764 232.107 38.8705 232.05 38.7695 231.992C38.4316 231.804 38.0986 231.6 37.7759 231.39C37.6547 231.312 37.5236 231.228 37.4025 231.144L37.3116 231.082C37.029 230.883 36.7467 230.684 36.4691 230.469C36.2824 230.323 36.0908 230.182 35.9093 230.03C35.6016 229.789 35.3038 229.533 35.0164 229.266C34.8649 229.135 34.7136 228.989 34.5725 228.853C34.0044 228.31 33.4671 227.733 32.9633 227.126C32.7968 226.927 32.6302 226.728 32.4738 226.519C32.4386 226.477 32.4083 226.435 32.3728 226.388C29.7721 222.985 28.2077 218.855 27.879 214.526C27.5504 210.197 28.4724 205.864 30.5275 202.08C32.5827 198.297 35.6777 195.234 39.418 193.282C43.1583 191.33 47.3743 190.578 51.5283 191.122C55.6823 191.666 59.5861 193.48 62.7417 196.335C65.8973 199.189 68.1618 202.953 69.2463 207.148C70.3308 211.342 70.1863 215.777 68.831 219.886C67.4758 223.995 64.9713 227.592 61.637 230.218H61.6369Z" fill="#3F3D56"/>
<path d="M86.1858 92.2403C78.4231 85.4464 68.9239 81.1392 58.8441 79.8427C48.7643 78.5462 38.5385 80.3165 29.411 84.938C20.2836 89.5595 12.6479 96.833 7.43332 105.874C2.2187 114.914 -0.350087 125.332 0.0395548 135.859C0.429196 146.386 3.76045 156.569 9.62798 165.168C15.4955 173.767 23.6463 180.412 33.0885 184.294C42.5308 188.176 52.8573 189.128 62.8116 187.034C72.7659 184.94 81.9188 179.89 89.1564 172.498L153.425 228.746C154.404 229.599 155.668 230.015 156.942 229.902C158.215 229.79 159.394 229.158 160.219 228.146C161.044 227.133 161.449 225.823 161.344 224.502C161.239 223.18 160.634 221.956 159.66 221.097L159.653 221.091L95.3838 164.844C102.85 153.73 106.045 140.124 104.344 126.694C102.642 113.264 96.1666 100.977 86.1858 92.2403V92.2403ZM82.0426 159.427C77.0358 165.582 70.3818 170.058 62.9222 172.29C55.4625 174.523 47.5322 174.41 40.1342 171.968C32.7361 169.525 26.2025 164.862 21.3595 158.568C16.5166 152.274 13.5819 144.632 12.9265 136.608C12.2711 128.584 13.9244 120.538 17.6775 113.489C21.4305 106.44 27.1146 100.703 34.0111 97.0043C40.9076 93.3056 48.7066 91.8111 56.422 92.7098C64.1373 93.6084 71.4225 96.8599 77.3562 102.053V102.053C85.3131 109.017 90.277 118.974 91.1559 129.734C92.0347 140.493 88.7566 151.175 82.0426 159.427V159.427Z" fill="#3F3D56"/>
<path opacity="0.3" d="M26.7261 164.288C19.1955 157.697 14.3301 148.409 13.0961 138.269C11.8621 128.13 14.3497 117.879 20.0649 109.554C19.3143 110.338 18.5887 111.159 17.8881 112.017C14.5637 116.103 12.0478 120.829 10.4842 125.924C8.92054 131.019 8.33972 136.383 8.77489 141.711C9.21006 147.039 10.6527 152.225 13.0205 156.975C15.3882 161.724 18.6347 165.943 22.5745 169.391C26.5144 172.84 31.0704 175.449 35.9826 177.071C40.8947 178.693 46.0668 179.295 51.2034 178.844C56.34 178.392 61.3406 176.896 65.9197 174.44C70.4988 171.984 74.5666 168.617 77.8911 164.531C78.5901 163.671 79.2484 162.791 79.8659 161.891C72.9149 169.135 63.5915 173.403 53.7471 173.847C43.9028 174.291 34.2573 170.879 26.7261 164.288Z" fill="black"/>
<path d="M215.752 230.849C216.254 230.213 216.616 229.471 216.811 228.675C217.007 227.878 217.032 227.047 216.884 226.24C216.736 225.432 216.42 224.668 215.957 224.002C215.494 223.335 214.895 222.782 214.204 222.381L202.489 172.648L193.943 175.477L206.593 224.871C206.021 226.12 205.91 227.544 206.282 228.873C206.654 230.201 207.484 231.342 208.613 232.079C209.742 232.816 211.092 233.098 212.408 232.871C213.724 232.644 214.913 231.925 215.752 230.849H215.752Z" fill="#FFB6B6"/>
<path d="M209.697 199.037L203.452 204.625L194.715 212.438L190.856 191.959L190.452 189.829L190.134 188.139L198.988 172.144L206.368 172.583L206.872 172.614L206.883 172.73L206.999 173.802L208.512 187.919L208.547 188.259L209.697 199.037Z" fill="#3F3D56"/>
<path d="M168.876 338.047L162.692 338.047L159.75 313.304L168.878 313.305L168.876 338.047Z" fill="#FFB6B6"/>
<path d="M170.454 344.265L150.512 344.265V344.003C150.512 341.868 151.33 339.82 152.786 338.31C154.241 336.801 156.216 335.952 158.274 335.952H158.275L170.454 335.953L170.454 344.265Z" fill="#2F2E41"/>
<path d="M233.448 338.57L227.264 338.57L224.321 313.827L233.45 313.828L233.448 338.57Z" fill="#FFB6B6"/>
<path d="M235.025 344.789L215.083 344.788V344.526C215.084 342.391 215.901 340.343 217.357 338.834C218.813 337.324 220.787 336.476 222.845 336.476H222.846L235.026 336.476L235.025 344.789Z" fill="#2F2E41"/>
<path d="M238.391 328.721L221.744 331.337L197.525 246.322L171.802 331.86L153.137 329.244L177.351 229.83V221.981L180.63 210.209L180.287 207.022L177.901 184.738L176.867 175.073L176.8 174.449C176.744 173.925 176.877 173.398 177.175 172.971C177.473 172.544 177.913 172.247 178.411 172.138V172.138L186.179 170.443H198.877L206.368 172.583L206.883 172.729L207.115 172.797L206.999 173.802L205.243 189.07L205.147 189.907L203.452 204.626L203.079 207.854C217.708 218.842 218.213 229.83 218.213 229.83L238.391 328.721Z" fill="#2F2E41"/>
<path d="M190.993 163.823C197.836 163.823 203.383 158.069 203.383 150.972C203.383 143.875 197.836 138.121 190.993 138.121C184.15 138.121 178.603 143.875 178.603 150.972C178.603 158.069 184.15 163.823 190.993 163.823Z" fill="#FFB6B6"/>
<path d="M204.007 204.901L179.497 208.226L179.955 211.857L204.465 208.533L204.007 204.901Z" fill="#3F3D56"/>
<path d="M146.62 209.32C146.854 209.478 147.077 209.654 147.284 209.847L171.527 203.437L173.181 197.371L182.333 198.764L180.412 209.797C180.257 210.689 179.827 211.504 179.187 212.12C178.547 212.737 177.732 213.121 176.863 213.216L148.557 216.308C148.095 217.316 147.349 218.153 146.418 218.71C145.486 219.267 144.413 219.517 143.341 219.426C142.269 219.335 141.25 218.907 140.418 218.201C139.586 217.494 138.981 216.541 138.684 215.469C138.387 214.397 138.412 213.257 138.755 212.2C139.098 211.143 139.743 210.219 140.604 209.551C141.466 208.884 142.503 208.504 143.577 208.463C144.652 208.422 145.713 208.721 146.62 209.32V209.32Z" fill="#FFB6B6"/>
<path d="M183.909 175.414L179.621 172.013C178.462 171.557 176.873 172.852 176.594 174.106L170.541 199.744L183.152 209.162L184.918 206.284L183.909 175.414Z" fill="#3F3D56"/>
<g opacity="0.2">
<path opacity="0.2" d="M208.512 187.919C207.441 188.359 206.35 188.744 205.243 189.07C204.89 189.18 204.526 189.284 204.168 189.384C201.807 190.063 199.381 190.47 196.934 190.598C195.881 190.644 194.826 190.614 193.776 190.509C192.65 190.392 191.537 190.165 190.452 189.829C190.416 189.818 190.376 189.808 190.341 189.797C188.085 189.133 186.017 187.914 184.312 186.244C183.931 185.86 183.576 185.449 183.248 185.015C182.306 183.818 181.615 182.431 181.219 180.942C180.823 179.453 180.73 177.894 180.948 176.366C180.99 176.089 181.047 175.815 181.119 175.544C181.309 174.808 181.561 174.09 181.871 173.399C182.007 173.075 182.158 172.756 182.32 172.442L188.02 170.443H198.876L206.368 172.583L206.872 172.614L206.882 172.729L207.114 172.797L206.998 173.802L208.512 187.919Z" fill="black"/>
</g>
<path d="M181.499 140.333C179.182 140.038 176.639 140.246 174.833 141.781C173.027 143.315 172.444 146.504 174.154 148.153C175.668 149.612 178.035 149.269 180.063 149.684C181.809 150.09 183.374 151.092 184.507 152.53C185.64 153.968 186.274 155.758 186.31 157.614C186.28 162.938 181.354 166.969 180.469 172.213C179.865 175.792 181.32 179.558 183.836 182.086C186.352 184.614 189.811 185.98 193.296 186.35C196.78 186.72 200.304 186.155 203.69 185.227C207.091 184.294 210.439 182.971 213.293 180.838C216.146 178.704 218.485 175.697 219.401 172.174C220.317 168.652 219.66 164.613 217.299 161.908C214.595 158.811 210.098 157.746 207.759 154.345C205.138 150.532 206.108 145.101 203.986 140.967C202.57 138.207 199.888 136.324 197.029 135.333C194.17 134.341 191.117 134.145 188.104 134.049C186.52 133.999 184.888 133.982 183.412 134.581C181.936 135.18 180.639 136.544 180.563 138.186C180.486 139.828 181.499 140.333 181.499 140.333Z" fill="#2F2E41"/>
<path d="M297.495 345H105.294C105.16 345 105.032 344.945 104.937 344.847C104.843 344.749 104.79 344.616 104.79 344.477C104.79 344.338 104.843 344.205 104.937 344.107C105.032 344.009 105.16 343.954 105.294 343.954H297.495C297.629 343.954 297.758 344.009 297.852 344.107C297.947 344.205 298 344.338 298 344.477C298 344.616 297.947 344.749 297.852 344.847C297.758 344.945 297.629 345 297.495 345Z" fill="#CACACA"/>
</g>
<defs>
<clipPath id="clip0_210_495">
<rect width="298" height="345" fill="white"/>
</clipPath>
</defs>
</svg>
